<svg version="1.1" xmlns="http://www.w3.org/2000/svg">
<defs>
<symbol id="icon-cloud" width="0" height="0" viewBox="0 0 32 32">
<title>cloud</title>
<path d="M24.068 27.43c-0.982-1.355-2.371-2.579-3.386-2.999-0.522-0.218-0.774-0.203-1.901 0.087-2.516 0.648-6.918-0.068-11.258-1.838-3.919-1.596-6.338-4.243-7.295-7.982-0.281-1.074-0.29-1.403-0.087-2.419 0.121-0.648 0.518-1.79 0.871-2.516 2.472-5.070 10.503-7.949 18.461-6.599 4.151 0.706 7.078 2.104 9.53 4.557 2.385 2.395 3.386 4.983 2.869 7.45-0.469 2.283-2.458 5.341-3.967 6.11-0.421 0.213-1.2 0.798-1.732 1.306l-0.968 0.919 0.097 2.477c0.048 1.596 0.019 2.53-0.097 2.612-0.111 0.058-0.619-0.469-1.137-1.176z"></path>
</symbol>
<symbol id="icon-key" width="0" height="0" viewBox="0 0 32 32">
<title>key</title>
<path d="M25.050 31.688c-2.395-0.76-4.935-2.661-5.892-4.422-0.339-0.629-0.629-1.306-0.629-1.49 0-0.194-0.426-1.2-0.948-2.254-0.847-1.693-1.364-2.322-4.514-5.476-3.952-3.957-5.094-4.804-7.441-5.505-2.24-0.677-3.149-1.171-4.059-2.235-1.732-2.032-1.79-5.723-0.082-5.723 0.6 0 1.079 0.493 1.5 1.534 0.155 0.406 0.484 0.798 0.726 0.871 0.813 0.266 2.772-1.364 3.241-2.695 0.155-0.445-0.169-0.813-1.451-1.616-0.992-0.643-1.176-1.538-0.411-2.071 0.706-0.493 2.593-0.46 3.74 0.063 2.114 0.968 2.883 2.080 3.561 5.196 0.701 3.241 2.196 5.539 5.786 8.935 2.419 2.293 3.928 3.203 5.999 3.638 4.789 1.001 8.771 5.404 7.624 8.418-0.435 1.142-1.19 0.997-3.512-0.677-1.403-1.006-2.564-1.098-2.888-0.227-0.29 0.735 0 1.5 1.122 2.97 1.427 1.872 1.534 2.177 0.934 2.661-0.59 0.484-1.127 0.503-2.404 0.097z"></path>
</symbol>
<symbol id="icon-note" width="0" height="0" viewBox="0 0 32 32">
<title>note</title>
<path d="M3.706 31.46c-1.732-0.856-3.058-3.009-2.709-4.393 0.208-0.842 1.209-1.935 2.259-2.467 0.508-0.261 2.167-0.75 3.686-1.088l2.767-0.614 0.116-20.125 5.999-0.755c3.285-0.411 7.179-0.953 8.626-1.209 1.442-0.256 3.145-0.484 3.764-0.493 1.838-0.048 1.819-0.126 1.911 9.579 0.087 9.69-0.145 14.001-0.861 15.384-0.508 1.006-2.346 2.54-3.735 3.116-1.659 0.692-3.522 0.3-5.080-1.064-1.79-1.587-1.853-3.193-0.169-4.809 1.030-0.987 1.713-1.335 3.89-1.983 2.806-0.842 3.033-1.345 3.174-7.112 0.174-6.966 0.077-7.015-11.756-5.099l-3.711 0.6v7.233c-0.010 8.215-0.242 12.046-0.813 13.004-0.552 0.929-2.293 2.032-3.87 2.433-1.79 0.464-2.332 0.445-3.493-0.131z"></path>
</symbol>
</defs>
</svg>
