<svg id="skp" xmlns="http://www.w3.org/2000/svg" viewBox="0 0 572.835 572.835"><path d="M427.79 417.996c12.24-17.544 18.36-37.536 18.36-59.98 0-18.356-3.47-34.064-10.404-47.12-6.938-12.648-17.136-23.463-30.603-32.438-6.525-4.08-13.563-7.854-21.11-11.322s-15.814-6.63-24.787-9.486c-8.98-3.264-18.462-6.12-28.458-8.568s-20.502-4.896-31.52-7.344c-16.32-3.672-28.765-6.732-37.333-9.18-3.672-.816-7.242-1.938-10.71-3.366s-7.038-2.958-10.71-4.59c-6.936-3.672-12.24-7.752-15.912-12.24-3.672-4.896-5.508-10.2-5.508-15.912 0-9.792 5.508-18.36 16.524-25.704 11.423-7.752 27.13-11.628 47.123-11.628 20.397 0 35.292 3.468 44.676 10.404 8.976 7.344 17.135 17.34 24.48 29.988 5.71 9.792 11.015 16.932 15.91 21.42 5.305 4.896 13.057 7.344 23.257 7.344 10.605 0 19.788-3.876 27.54-11.628 7.344-7.752 11.016-16.524 11.016-26.316s-2.856-19.992-8.568-30.6-14.48-20.4-26.313-29.376-26.52-16.32-44.064-22.032c-18.357-5.712-39.372-8.568-63.036-8.568-30.6 0-56.916 4.284-78.948 12.852-22.848 8.16-40.392 20.196-52.632 36.108-11.832 16.32-17.748 34.476-17.748 54.468 0 22.032 5.712 39.984 17.136 53.856 11.832 14.688 27.336 26.112 46.512 34.27 18.36 7.754 41.82 14.69 70.38 20.81 10.608 2.04 19.992 4.08 28.152 6.12s15.3 4.08 21.42 6.12c11.424 3.673 21.012 8.977 28.764 15.912 6.938 6.937 10.404 15.505 10.404 25.702 0 13.466-6.732 24.687-20.196 33.66-13.872 9.384-32.025 14.076-54.468 14.076-16.728 0-29.58-2.448-38.556-7.344-9.792-4.488-17.34-10.2-22.644-17.137-6.12-8.16-11.424-17.342-15.912-27.54-4.488-10.607-9.588-18.36-15.3-23.258-6.528-5.305-14.484-7.956-23.868-7.956-11.016 0-20.4 3.47-28.152 10.403-7.752 6.938-11.628 15.3-11.628 25.092 0 15.91 5.916 32.23 17.748 48.96 10.608 16.32 25.296 29.376 44.064 39.17 24.888 13.463 57.12 20.193 96.696 20.193 32.64 0 60.588-4.896 83.844-14.688 23.664-9.785 42.024-23.657 55.08-41.61zm124.848-70.992c10.608 22.032 15.912 45.288 15.912 69.77 0 21.625-4.08 41.923-12.24 60.895-8.157 18.97-19.275 35.495-33.354 49.57s-30.603 25.192-49.572 33.355-39.27 12.24-60.894 12.24c-13.464 0-26.418-1.632-38.862-4.896-12.444-3.267-23.97-7.754-34.578-13.467-8.16 1.227-16.422 2.244-24.786 3.063-8.36.813-16.626 1.224-24.786 1.224-37.125 0-72.012-7.038-104.65-21.114-32.64-14.073-61.2-33.354-85.68-57.834-24.48-24.48-43.757-53.04-57.833-85.68C27.238 361.492 20.2 326.605 20.2 289.477c0-18.357 1.835-36.516 5.507-54.468-14.28-22.85-21.42-49.166-21.42-78.95 0-21.624 4.08-41.922 12.24-60.894S35.803 59.67 49.88 45.594 80.48 20.4 99.452 12.24 138.722 0 160.346 0c15.504 0 30.192 2.142 44.064 6.426 13.872 4.284 26.928 10.098 39.168 17.442 14.688-2.448 29.988-3.672 45.897-3.672 37.13 0 72.015 7.038 104.652 21.114s61.2 33.354 85.68 57.834 43.76 53.04 57.834 85.68c14.077 32.64 21.115 67.524 21.115 104.65 0 9.79-.51 19.48-1.53 29.07-1.017 9.59-2.547 19.076-4.587 28.46z"/></svg>
